<?xml version="1.0" encoding="UTF-8"?>
<svg id="Camada_1" data-name="Camada 1" xmlns="http://www.w3.org/2000/svg" viewBox="0 0 2000 1500">
  <defs>
    <style>
      .cls-1 {
        fill: #fff;
      }

      .cls-1, .cls-2, .cls-3 {
        stroke-width: 0px;
      }

      .cls-2 {
        fill: #e20505;
      }

      .cls-3 {
        fill: #1d1d1b;
      }
    </style>
  </defs>
  <path class="cls-3" d="m1714.77,477.33c-1,0-2.01-.04-3.03-.13-279.65-23.5-660.6-.18-664.41.06-19.76,1.22-36.66-13.74-37.89-33.44-1.23-19.7,13.74-36.66,33.44-37.89,3.87-.24,389.93-23.89,674.85.06,19.67,1.65,34.27,18.94,32.62,38.6-1.57,18.65-17.19,32.75-35.57,32.75Z"/>
  <g>
    <path class="cls-1" d="m1052.78,456.09l8.63-43.17h2.59l13.38,34.66-1.36-.18,26.46-34.48h2.77l-8.63,43.17h-3.08l7.71-38.48.93.12-25.16,32.62h-1.54l-12.76-32.81.8.12-7.65,38.42h-3.08Z"/>
    <path class="cls-1" d="m1116.86,456.09l28.49-43.17h3.15l11.22,43.17h-3.21l-10.48-41.26h1.3l-26.95,41.26h-3.52Zm9.68-12.15l1.6-2.65h25.78l.56,2.65h-27.94Z"/>
    <path class="cls-1" d="m1179.89,456.09l8.63-43.17h15.11c4.77,0,8.46,1.04,11.07,3.11,2.61,2.08,3.92,5.01,3.92,8.79s-.8,6.82-2.41,9.34c-1.6,2.53-3.89,4.45-6.85,5.77-2.96,1.32-6.48,1.97-10.55,1.97h-14.31l1.66-1.42-3.14,15.6h-3.15Zm6.23-15.42l-1.05-1.54h13.75c5.26,0,9.35-1.18,12.27-3.55,2.92-2.36,4.38-5.87,4.38-10.52,0-3-1.04-5.3-3.11-6.91-2.08-1.6-5.05-2.41-8.91-2.41h-13.69l1.66-1.54-5.3,26.46Zm23.81,15.42l-8.82-15.67h3.45l8.82,15.67h-3.45Z"/>
    <path class="cls-1" d="m1244.28,456.09l8.02-40.33h-15.54l.62-2.84h34.23l-.56,2.84h-15.54l-8.08,40.33h-3.15Z"/>
    <path class="cls-1" d="m1283.07,456.09l8.63-43.17h3.15l-8.63,43.17h-3.15Z"/>
    <path class="cls-1" d="m1306.38,456.09l28.49-43.17h3.15l11.22,43.17h-3.21l-10.48-41.26h1.3l-26.95,41.26h-3.51Zm9.68-12.15l1.6-2.65h25.78l.56,2.65h-27.94Z"/>
    <path class="cls-1" d="m1369.41,456.09l8.63-43.17h3.15l-8.08,40.33h24.85l-.62,2.84h-27.94Z"/>
    <path class="cls-1" d="m1438.79,456.09l28.49-43.17h3.15l11.22,43.17h-3.21l-10.48-41.26h1.3l-26.95,41.26h-3.51Zm9.68-12.15l1.6-2.65h25.78l.56,2.65h-27.94Z"/>
    <path class="cls-1" d="m1501.82,456.09l8.63-43.17h15.11c4.77,0,8.46,1.04,11.07,3.11,2.61,2.08,3.92,5.01,3.92,8.79s-.8,6.82-2.4,9.34c-1.6,2.53-3.89,4.45-6.85,5.77-2.96,1.32-6.48,1.97-10.55,1.97h-14.31l1.67-1.42-3.15,15.6h-3.15Zm6.23-15.42l-1.05-1.54h13.75c5.26,0,9.35-1.18,12.27-3.55,2.92-2.36,4.38-5.87,4.38-10.52,0-3-1.04-5.3-3.11-6.91-2.08-1.6-5.05-2.41-8.91-2.41h-13.69l1.67-1.54-5.3,26.46Zm23.81,15.42l-8.82-15.67h3.45l8.82,15.67h-3.45Z"/>
    <path class="cls-1" d="m1566.21,456.09l8.02-40.33h-15.54l.62-2.84h34.23l-.55,2.84h-15.54l-8.08,40.33h-3.15Z"/>
    <path class="cls-1" d="m1616.23,456.4c-2.1,0-4.14-.26-6.14-.77-2-.51-3.78-1.2-5.37-2.07-1.58-.86-2.83-1.83-3.73-2.9l1.67-2.41c.9,1.03,2.09,1.95,3.55,2.78s3.08,1.46,4.87,1.91c1.79.45,3.59.68,5.4.68,2.67,0,5.05-.37,7.12-1.11,2.08-.74,3.69-1.82,4.84-3.24,1.15-1.42,1.73-3.15,1.73-5.21,0-1.52-.42-2.75-1.26-3.7s-1.93-1.73-3.27-2.34c-1.34-.62-2.82-1.14-4.44-1.57-1.63-.43-3.25-.92-4.87-1.45-1.63-.53-3.11-1.18-4.44-1.94-1.34-.76-2.43-1.76-3.27-2.99s-1.26-2.79-1.26-4.69c0-2.71.73-5.02,2.19-6.91,1.46-1.89,3.44-3.34,5.95-4.35,2.51-1.01,5.36-1.51,8.57-1.51,2.47,0,4.85.32,7.15.96s4.26,1.57,5.86,2.81l-1.48,2.59c-1.52-1.15-3.29-2.03-5.3-2.65-2.01-.62-4.13-.92-6.35-.92-2.63,0-4.96.38-7,1.14-2.03.76-3.62,1.86-4.75,3.3s-1.7,3.19-1.7,5.24c0,1.52.41,2.77,1.23,3.73.82.97,1.9,1.77,3.24,2.41,1.34.64,2.83,1.18,4.47,1.63,1.64.45,3.27.94,4.87,1.45,1.6.51,3.08,1.15,4.44,1.91,1.36.76,2.46,1.74,3.3,2.93.84,1.19,1.26,2.71,1.26,4.56,0,2.75-.75,5.08-2.25,6.97-1.5,1.89-3.54,3.32-6.11,4.29s-5.48,1.45-8.73,1.45Z"/>
  </g>
  <path class="cls-1" d="m1690.26,462.6c-3.91,0-7.53-.7-10.86-2.11-3.34-1.41-6.25-3.37-8.76-5.9s-4.44-5.46-5.82-8.79c-1.38-3.33-2.07-6.93-2.07-10.79s.7-7.45,2.11-10.79c1.41-3.33,3.36-6.26,5.86-8.79,2.5-2.53,5.43-4.49,8.79-5.9s7-2.11,10.91-2.11,7.54.69,10.9,2.07,6.28,3.32,8.75,5.82,4.4,5.41,5.79,8.72c1.38,3.31,2.07,6.92,2.07,10.83s-.7,7.54-2.11,10.91c-1.41,3.36-3.37,6.3-5.9,8.83-2.53,2.53-5.46,4.49-8.79,5.9s-6.96,2.11-10.86,2.11Zm-.08-4.3c3.33,0,6.41-.6,9.22-1.8,2.82-1.2,5.28-2.85,7.39-4.96s3.74-4.6,4.89-7.47c1.14-2.86,1.72-5.94,1.72-9.22s-.57-6.33-1.72-9.14c-1.15-2.81-2.75-5.26-4.81-7.35-2.06-2.08-4.48-3.71-7.27-4.89s-5.85-1.76-9.18-1.76-6.42.59-9.26,1.76c-2.84,1.17-5.29,2.83-7.35,4.96-2.06,2.14-3.67,4.61-4.85,7.43-1.17,2.81-1.76,5.86-1.76,9.14s.57,6.33,1.72,9.15c1.15,2.81,2.76,5.29,4.85,7.42,2.08,2.14,4.53,3.79,7.35,4.96s5.84,1.76,9.07,1.76Zm-11.41-7.9v-30.8h12.82c4.06,0,7.24.96,9.54,2.89,2.29,1.93,3.44,4.53,3.44,7.82s-1.15,6.02-3.44,7.9c-2.29,1.88-5.47,2.81-9.54,2.81h-6.1v9.38h-6.72Zm6.64-14.62h5.79c2.19,0,3.88-.48,5.08-1.45,1.2-.96,1.8-2.31,1.8-4.03s-.6-3.05-1.8-3.99c-1.2-.94-2.89-1.41-5.08-1.41h-5.79v10.86Zm13.13,14.62l-7.66-11.8h6.72l7.66,11.8h-6.72Z"/>
  <g>
    <path class="cls-2" d="m321.84,1168.43c-18.02,0-35.97-3.4-49.26-9.32l-.3-.13c-26.59-12.18-62.65-33.24-68.75-75.38-6.14-42.36,15.57-93.47,88.46-235.86,25.11-48.68,77.85-149.71,112.65-213.95,15.91-29.36,29.79-55.26,38.52-75,4.6-10.41,7.09-17.6,8.42-22.46l-24.92-12.85,26.26-35.18c8.38-11.23,19.31-14.91,27.01-16.03,2.11-.31,4.31-.46,6.53-.46,15.82,0,35.94,8.39,59.79,24.93,42.71,29.61,45.89,51.48,46.93,58.67,2.35,16.18-1.6,32.74-47.77,114.39-8.83,15.72-17.95,31.87-26.77,47.5-54.16,95.95-110.02,194.92-144.67,272.71,8.29-9.93,16.13-19.6,22.89-28.27,11.88-15.68,25.4-18.98,34.67-18.98,6.36,0,12.69,1.63,18.31,4.71,17.39,9.55,24.28,30.05,16.75,49.86l-.34.85c-11.69,28.62-31.12,66.26-49.52,95.89-29.64,47.75-52.46,69.6-76.3,73.06-5.91.86-12.16,1.29-18.59,1.29Z"/>
    <path class="cls-2" d="m176.99,848.95c-31.03,0-63.88-11.57-92.5-32.57-31.74-23.3-53.09-53.69-57.09-81.31-5.57-38.42,4.82-77.73,30.89-116.84,23.05-34.58,57.48-67.5,102.35-97.84,90.77-61.38,215.17-105.98,350.28-125.57,53.28-7.72,109.4-11.64,166.8-11.64,26.48,0,53.17.86,79.34,2.54,80.53,5.19,154.42,17.99,213.74,37.01,19.49,5.81,31.66,25.54,27.81,45.36-3.63,18.65-19.85,31.68-39.45,31.68-2.14,0-4.32-.16-6.48-.47-63.69-8.76-128.33-13.2-192.12-13.2s-126.04,4.35-185.16,12.92c-110.14,15.97-222.46,58.47-308.18,116.6-78.38,53.16-108.29,100.93-111.29,130.06,11.98-3.72,35.77-13.98,73.59-38.07,45.2-28.79,92.66-65.8,126.96-99.01l.53-.5c11.57-10.76,23-13.02,30.57-13.02,9.03,0,17.81,3.2,24.74,9.01,12.57,10.55,21.27,32.1,4.41,58.13l-.53.8c-29.92,43.66-65.75,85.17-100.89,116.91-43.99,39.71-84.69,62.52-120.99,67.78-5.64.82-11.46,1.23-17.31,1.23h0Z"/>
    <path class="cls-2" d="m1230.03,1324.95c-16.78,0-31.77-10.52-37.3-26.18-7.12-20.15,3.1-41.69,23.77-50.19,149.87-62.46,259.66-138.34,325.37-191,86.84-69.59,162.13-163.16,206.55-256.72,42.03-88.52,42.25-145.76,28.7-171.19-13.51,3.56-30.16,8.16-43.91,12.08-8.57,22.97-20.97,46.91-35.81,68.94-11.45,16.94-35.55,49.95-68.57,81.15-43.52,41.12-87.69,65.17-131.3,71.5-3.86.56-8.09.84-12.59.84-14.25,0-32.32-2.76-49.78-8.67-18.84,44.41-38.28,92.03-52.56,134.42-17.6,52.27-19.52,74.57-19.41,82.32l4.83,4.31,1.94,13.4c2.19,15.11-4.82,30.02-17.86,37.99-6.42,3.94-13.52,5.86-21.68,5.86s-16.53-1.78-27.38-5.61c-7.67-2.71-22.76-8.81-37.55-19.29-29.57-20.96-42.96-49.56-36.75-78.47l.04-.21c9.58-43.17,33.49-109.8,58.75-172.32-36.11,29.06-72.53,46.39-108.56,51.61-3.85.56-8.09.84-12.6.84-14.25,0-32.31-2.76-49.77-8.67-18.84,44.42-38.29,92.03-52.55,134.42-17.6,52.28-19.52,74.58-19.42,82.32l4.83,4.31,1.94,13.4c2.19,15.1-4.82,30.01-17.86,37.99-6.42,3.94-13.52,5.86-21.69,5.86s-16.53-1.78-27.38-5.61c-7.68-2.71-22.77-8.82-37.55-19.3-29.57-20.96-42.96-49.56-36.75-78.47l.04-.21c7.97-35.94,25.25-86.23,44.35-135.82-.99.04-2,.06-3.01.06-17.74,0-37.06-5.78-53.04-15.87-7.52-4.67-20.35-13.63-30.91-25.97-10.48,11.05-19.57,20.18-27.84,27.97-26.6,25.07-45.55,36.87-63.38,39.45-2.39.34-4.85.51-7.36.51-16.05,0-37.43-7.49-57.2-20.05-19.29-12.25-43.2-33.16-47.55-63.23-3.67-25.29,5.36-57.22,27.59-97.61,7.96-14.47,17.44-29.56,28-44.63-20.12,9.21-38.36,23.85-58.06,46.19l-.12.13c-42.61,47.76-76.45,100.87-92.85,145.7l-.07.18c-2.22,6.03-3.61,10.77-4.42,14.09,2.05,7.11,2.04,14.75-.23,22.09-5.44,17.57-22.27,28.92-42.88,28.92-.65,0-1.29-.01-1.93-.03-21.66-.78-57.71-26.62-71.45-43.66-13.99-17.35-14.73-33.19-12.89-43.43,2.33-12.97,7.67-27.83,17.85-49.69l22.23-46.04c6.64-13.55,15.2-30.79,23.49-47.46l.48-.96c13.29-26.74,27.03-54.39,33.32-67.79.82-1.81,1.54-3.49,2.18-5.04l-46.14-15.28,61.09-42.47c7.55-5.25,18.6-8.27,30.32-8.27,10.95,0,22.14,2.5,33.26,7.44l.33.15c16.32,7.48,28.85,16.54,38.17,25.99,49.75-53.28,68.41-60.16,76.37-63.11l.75-.27c4.62-1.59,9.48-2.4,14.44-2.4,9.71,0,19.26,3.02,28.37,8.97,13.44,8.78,25.03,23.25,32.64,39.66,44.19-40.77,86.84-66.03,121.06-70.99,8.78-1.27,17.6-1.92,26.23-1.92,22.39,0,43.66,4.37,61.52,12.63,30.03,13.9,49.67,38.6,53.9,67.76,2.48,17.13-5.72,30.85-12.83,39.46,1.68,2.64,3.24,5.39,4.59,8.22,5.14-6.4,10.19-12.75,15.09-19.01,12.52-24.47,26.34-51.52,33.53-66.47,2.75-5.69,4.49-10.29,5.55-13.68l-12.73-24.83,18.59-19.14c7.82-8.03,19.14-12.26,32.78-12.26,10.8,0,22.43,2.79,33.66,8.07,6.23,2.83,11.91,5.87,17.23,9.22,28.4-21.42,58.79-34.57,90.63-39.19,5.2-.75,10.59-1.13,16.03-1.13,24.91,0,51.76,8.13,73.68,22.3,16.46,10.64,28.89,23.68,36.48,37.99,2.51-5.04,4.8-9.68,6.65-13.54,2.75-5.69,4.49-10.29,5.55-13.68l-12.75-24.8,18.59-19.16c7.81-8.04,19.14-12.27,32.79-12.27,10.8,0,22.44,2.79,33.66,8.08,6.23,2.83,11.91,5.87,17.22,9.22,28.4-21.42,58.79-34.57,90.63-39.19,5.25-.76,10.68-1.14,16.16-1.14,22.38,0,46.12,6.49,66.85,18.28,21.45,12.2,37.26,28.63,45.43,46.74,14.27-4.09,29.65-6.22,45.58-6.22,6.17,0,12.45.32,18.68.96,39.18,3.99,72.98,19.38,90.44,41.16,24.27,30.29,35.24,69.44,32.6,116.37-2.34,41.49-15.34,87.32-38.63,136.22-47.13,98.92-131.76,200.42-238.3,285.79-61.5,49.28-133.27,95.13-207.57,132.61-72.04,36.34-142.22,62.76-202.99,76.43-3.17.78-6.42,1.18-9.68,1.18Zm59.7-693.8c-2.55,1.88-5.24,3.94-8.03,6.18,2.11-.77,4.21-1.53,6.32-2.29.6-1.34,1.18-2.64,1.71-3.89Zm318.54-46.18c-2.55,1.88-5.24,3.94-8.03,6.18,2.11-.77,4.21-1.53,6.32-2.29.6-1.34,1.18-2.64,1.71-3.89Z"/>
  </g>
  <g>
    <path class="cls-1" d="m445.33,959.17c-2.65-1.45-6.97-1.64-12.5,5.75-18.2,23.35-44.05,53.82-65.88,77.65-35,38.22-46.12,44.86-48.9,46.01-.37-.66-.85-1.88-1.11-3.66-3.7-25.53,15.54-70.14,27.04-96.78,1.12-2.59,2.17-5.03,3.15-7.34,34.25-82.03,95.44-190.43,154.61-295.26,8.81-15.61,17.92-31.74,26.78-47.52,40.32-71.31,44.96-87.42,43.98-94.2-2.01-13.88-24.16-30.59-33.59-37.12-5.07-3.52-31.04-20.97-43.67-19.14-3.84.56-5.43,2.68-6.1,3.59l-3.83,5.13,5.69,2.94c2.13,1.1,3.59,2.74,4.28,7.53,3.28,22.64-17.6,62.64-51.94,126.02-34.67,63.99-87.28,164.78-112.3,213.29-67.14,131.16-90.12,183.63-85.3,216.83,3,20.68,18.57,36.42,50.55,51.06,9.44,4.21,23.1,6.57,36.33,6.57,4.81,0,9.56-.31,14.03-.96,12.87-1.87,30.99-21.51,53.87-58.37,17.54-28.26,36.02-64.04,47.1-91.15l.05-.13c2.68-7.05-.74-9.85-2.34-10.73Z"/>
    <path class="cls-1" d="m400.76,628.93l.08-.12c5.03-7.77,5.65-13.32,1.84-16.52-1.99-1.67-6.35-3.5-13.25,2.92l-.08.07c-35.75,34.61-85.09,73.11-131.99,102.98-48.68,31.01-87.26,47.64-103.21,44.48l-.16-.03c-14.21-2.38-17.75-12.55-18.6-18.41-7.15-49.31,39.5-113.28,124.78-171.12,89.55-60.74,206.72-105.11,321.45-121.75,85.38-12.38,221.7-22.38,386.26.26,6.18.91,9.64-2.27,10.33-5.82.76-3.94-1.82-7.81-5.91-8.92-56.94-18.31-128.34-30.66-206.51-35.7-80.87-5.22-163.7-2.16-239.54,8.83-130.47,18.92-250.17,61.69-337.05,120.44-41.44,28.02-72.97,58.01-93.71,89.14-21.59,32.39-30.3,64.24-25.88,94.66,2.73,18.79,20.17,42.45,44.45,60.27,23.34,17.12,49.55,26.41,73.71,26.41,4.33,0,8.59-.3,12.75-.9,29.53-4.28,65.59-25,104.27-59.92,33.35-30.11,67.43-69.63,95.98-111.29Z"/>
    <path class="cls-1" d="m1880.59,580.06c-11.87-14.82-38.91-26.37-68.87-29.42-33.71-3.43-65.37,4.39-86.99,21.47,1.13-9.31,1.16-17.19.14-24.26-2.24-15.42-15.44-31.37-35.32-42.68-19.96-11.35-42.82-16.2-62.75-13.31-33.4,4.84-65.24,21.26-94.7,48.83-9.19-9.38-18.52-15.79-31.06-21.48-15.83-7.51-27.55-5.34-30.31-2.5l-2.71,2.8,3.56,6.93,2.18-.32c.28.26.56.64.82,1.26,2.15,5.07.07,18.97-9.41,38.61-5.29,11.01-13.76,27.77-23.48,46.83-10.01,2.54-22.04,5.68-36.03,9.42,1.63-11.05,1.83-20.15.67-28.2-4.75-32.77-56.08-62.07-98.07-55.99-33.4,4.84-65.24,21.26-94.7,48.83-9.19-9.38-18.52-15.79-31.06-21.48-15.83-7.51-27.54-5.34-30.3-2.5l-2.71,2.79,3.55,6.93,2.18-.32c.29.26.56.64.82,1.26,2.15,5.07.07,18.97-9.41,38.61-7.34,15.28-20.82,41.66-35.26,69.88-27.12,34.78-58.55,72.32-87.21,104.12-28.7,31.84-44.53,46.75-51.79,52.39,1.69-6.2,5.74-17.31,13.26-33.31,11.36-24.18,27.08-52.03,44.23-78.39l11.65-17.59.23-.69c.07-.2.14-.36.2-.52.37-.93.98-2.45.74-4.54-.55-6.95-11.02-21.04-22.12-30.57,5.47-3.95,10.6-8.18,14.63-12.1,8.33-8.09,11.82-14.47,11.01-20.09-2.7-18.6-15.41-34.05-35.81-43.49-19.34-8.95-44.15-11.83-69.85-8.11-36.66,5.31-89.68,43.21-141.84,101.37-4.47,4.97-8.86,10.05-13.16,15.19l.11-.13c8.41-10.44,7.2-35.36,6.87-40.24v-.08c-1.71-20.89-15.38-41.63-27.6-49.61-6.91-4.51-12.01-4.2-15.08-3.14l-.11.04c-24.07,8.89-73.2,63.66-103.64,99.65,5.37-11.1,7.45-17.24,7.07-20.8-.81-9.8-12.65-29.12-42.2-42.65-18.05-8.01-30.27-3.72-32.56-2.13l-8.91,6.2,10.31,3.41c.43.14.92.38,1.37,1.42,1.93,4.41.68,17.27-9.17,38.96-6.4,13.67-20.29,41.61-33.72,68.64-8.44,16.97-17.16,34.53-23.88,48.25l-21.94,45.41-.03.07c-8.84,18.98-13.59,31.91-15.38,41.9-.97,5.42,1.16,11.44,6.36,17.88,12.2,15.13,40.87,31.6,47.86,31.85.26,0,.53.01.79.01,5.02,0,11.03-1.69,12.54-6.56.66-2.14.35-5.05-2.16-7.45-.26-3.24,1.12-13.41,7.39-30.41h0c17.73-48.47,53.8-105.29,98.98-155.94,30.51-34.6,59.92-54.21,95.34-63.56,13.06-3.4,22.76.37,26.16,3.77,3.41,3.83,5.54,8.29,5.71,11.94l.63,14.22c-17.97,22.61-33.9,46.17-46.12,68.39-12.73,23.13-27.22,55.39-23.98,77.74,2.77,19.08,21.96,33.86,33.15,40.97,14.48,9.2,30.37,15.1,40.17,15.1,1,0,1.93-.06,2.8-.19,10.58-1.53,25.24-11.43,46.15-31.13,16.37-15.43,36.33-36.56,64.71-68.51,4.08-4.61,8.58-10,13.29-15.84-8.03,15.82-12.6,26.46-13.66,31.82l-.02.09c-.27,1.53-.68,4.43-.36,7,.9,14.51,18.56,30.41,33.44,39.63,14.72,9.32,31.74,12.08,41.32,10.69,1.21-.18,2.29-.46,4.17-1.4,17.64-8.03,52.02-49.87,76.2-81.34-34.56,75.6-81.66,193.59-95.84,257.48-3.52,16.36,4.81,32.22,24.07,45.88,11.64,8.25,23.63,13.1,29.74,15.26,8.4,2.96,13.58,3.8,16.81,3.8s4.46-.8,5.11-1.2c2.22-1.36,3.37-3.78,3-6.33l-.28-1.96-1.47-1.32c-6.26-5.59-12.54-27.49,15.73-111.46,17.54-52.11,42.34-111.07,66.58-167.49,20.84,15.42,56.62,22.1,73.89,19.59,86.56-12.55,158.18-109.53,178.07-138.96,16.82-24.98,30.01-52.22,37.35-77.06,7.33-2.19,17.5-5.1,28.31-8.13-.2.38-.39.77-.59,1.15-17.39,34-37.11,72.54-50.93,101.02-34.67,72.2-91.09,210.01-106.84,281.01-3.51,16.36,4.81,32.22,24.07,45.88,11.64,8.25,23.63,13.1,29.74,15.25,8.4,2.96,13.58,3.8,16.81,3.8s4.46-.8,5.11-1.2c2.22-1.36,3.37-3.78,3-6.33l-.28-1.96-1.47-1.32c-6.26-5.59-12.54-27.49,15.73-111.46,17.54-52.11,42.34-111.07,66.58-167.49,20.84,15.41,56.61,22.09,73.89,19.59,86.56-12.55,158.18-109.53,178.08-138.96,16.82-24.98,30.01-52.22,37.35-77.06,17.71-5.28,51.93-14.82,71.85-19.82.57-.15,1.11-.35,1.61-.59,8.07.06,13.34,4.81,16.09,8.25,31.16,38.88,23.37,117.67-20.83,210.76-46.41,97.75-124.91,195.39-215.38,267.88-67.33,53.95-179.77,131.68-333.1,195.57-5.78,2.35-7.16,6.84-5.95,10.25,1.09,3.08,4.07,5,7.35,5,.75,0,1.51-.1,2.26-.31,58.37-13.08,126.17-38.63,196.1-73.9,72.36-36.5,142.21-81.12,202.01-129.03,102.88-82.44,184.38-179.98,229.49-274.67,21.52-45.16,33.49-87,35.6-124.35,2.19-38.86-6.45-70.73-25.67-94.72Zm-418.69,196.79c-7.41,1.07-10.97-.01-11.13-1.13-1.43-9.88,14.35-35.29,63.55-74.41,34.03-27.06,72.76-51.37,103.38-65.26-22.05,32.8-47.02,63.43-71.41,87.46-31.99,31.52-61.17,49.97-84.38,53.33h0Zm171.38-176.12c-47.39,16.94-91.24,34.1-140.17,68.05,26.78-44.1,48.83-73.05,73.38-96.8,29.71-28.67,59.98-48.8,77.12-51.29,1.3-.19,2.52-.28,3.65-.28,6.82,0,10.52,3.46,11.57,10.69,2.33,16.05-3.77,38.09-18.64,67.35l-6.78,2.24-.13.04Zm-489.92,222.3c-4.6.67-7.35.45-8.84.16-2.17-.43-2.25-1.03-2.29-1.29-1.43-9.88,14.35-35.29,63.55-74.41,34.03-27.06,72.76-51.37,103.38-65.26-22.05,32.8-47.02,63.43-71.41,87.46-31.99,31.52-61.17,49.97-84.38,53.33h0Zm171.38-176.12c-47.39,16.94-91.24,34.1-140.17,68.05,26.78-44.1,48.83-73.05,73.38-96.8,29.71-28.67,59.98-48.8,77.12-51.29,1.3-.19,2.52-.28,3.65-.28,6.82,0,10.52,3.46,11.57,10.69,2.33,16.05-3.77,38.1-18.63,67.35l-6.78,2.24-.13.04Zm-343.16,21.05c-.78,16.87-35.39,60.13-91.06,113.69-50.77,48.84-95.45,83.81-105.87,88.04.42-7.2,6.96-24.54,24.51-54.2,17.41-29.42,40.87-63.01,66.05-94.58,28.89-36.27,87.14-95.61,120.45-100.44.68-.1,1.34-.15,1.98-.15,2.34,0,4.34.67,5.98,2,2.97,2.41,4.8,6.96,5.15,12.77.56,9.85-.28,18.42-1.65,23.41-9.03-2.78-20.8-2.11-25.04-.2l-10.59,4.79,10.08,4.87Z"/>
  </g>
</svg>