<?xml version="1.0" encoding="utf-8"?>
<!-- Generator: Adobe Illustrator 27.9.0, SVG Export Plug-In . SVG Version: 6.00 Build 0)  -->
<svg version="1.1" id="Camada_1" xmlns="http://www.w3.org/2000/svg" xmlns:xlink="http://www.w3.org/1999/xlink" x="0px" y="0px"
	 viewBox="0 0 1550 1500" style="enable-background:new 0 0 1550 1500;" xml:space="preserve">
<style type="text/css">
	.st0{fill:#1D1D1B;}
	.st1{fill:#FFFFFF;}
	.st2{fill:#E20505;}
</style>
<g>
	<path d="M1403.3,1478.74H146.7c-55.48,0-100.45-44.97-100.45-100.45V121.7c0-55.48,44.97-100.45,100.45-100.45H1403.3
		c55.48,0,100.45,44.97,100.45,100.45V1378.3C1503.74,1433.77,1458.77,1478.74,1403.3,1478.74z"/>
	<g>
		<g>
			<path class="st0" d="M1341.4,262.8c-0.91,0-1.83-0.04-2.75-0.12c-253.35-21.29-598.47-0.16-601.92,0.05
				c-17.9,1.11-33.22-12.45-34.33-30.29c-1.11-17.84,12.45-33.21,30.29-34.33c3.5-0.22,353.26-21.64,611.38,0.05
				c17.82,1.5,31.05,17.15,29.55,34.97C1372.21,250.03,1358.06,262.8,1341.4,262.8z"/>
		</g>
		<g>
			<path class="st1" d="M741.67,243.55l7.82-39.11h2.35l12.12,31.4l-1.23-0.17l23.97-31.23h2.51l-7.82,39.11h-2.79l6.98-34.86
				l0.84,0.11l-22.8,29.56h-1.4l-11.56-29.72l0.73,0.11l-6.93,34.81H741.67z"/>
			<path class="st1" d="M799.72,243.55l25.81-39.11h2.85l10.17,39.11h-2.91l-9.5-37.38h1.17l-24.42,37.38H799.72z M808.5,232.55
				l1.45-2.4h23.35l0.5,2.4H808.5z"/>
			<path class="st1" d="M856.83,243.55l7.82-39.11h13.69c4.32,0,7.66,0.94,10.03,2.82c2.36,1.88,3.55,4.54,3.55,7.96
				c0,3.35-0.73,6.17-2.18,8.46c-1.45,2.29-3.52,4.03-6.2,5.22c-2.68,1.19-5.87,1.79-9.55,1.79h-12.96l1.51-1.29l-2.85,14.14H856.83
				z M862.47,229.58l-0.95-1.4h12.46c4.77,0,8.47-1.07,11.12-3.21c2.64-2.14,3.97-5.32,3.97-9.53c0-2.72-0.94-4.8-2.82-6.26
				c-1.88-1.45-4.57-2.18-8.07-2.18h-12.4l1.51-1.4L862.47,229.58z M884.04,243.55l-7.99-14.19h3.13l7.99,14.19H884.04z"/>
			<path class="st1" d="M915.16,243.55l7.26-36.54h-14.08l0.56-2.57h31.01l-0.5,2.57h-14.08l-7.32,36.54H915.16z"/>
			<path class="st1" d="M950.3,243.55l7.82-39.11h2.85l-7.82,39.11H950.3z"/>
			<path class="st1" d="M971.42,243.55l25.81-39.11h2.85l10.17,39.11h-2.9l-9.5-37.38h1.17l-24.42,37.38H971.42z M980.19,232.55
				l1.45-2.4H1005l0.5,2.4H980.19z"/>
			<path class="st1" d="M1028.52,243.55l7.82-39.11h2.85l-7.32,36.54h22.52l-0.56,2.57H1028.52z"/>
			<path class="st1" d="M1091.38,243.55l25.81-39.11h2.85l10.17,39.11h-2.9l-9.5-37.38h1.17l-24.42,37.38H1091.38z M1100.15,232.55
				l1.45-2.4h23.35l0.5,2.4H1100.15z"/>
			<path class="st1" d="M1148.48,243.55l7.82-39.11h13.69c4.32,0,7.66,0.94,10.03,2.82c2.37,1.88,3.55,4.54,3.55,7.96
				c0,3.35-0.73,6.17-2.18,8.46c-1.45,2.29-3.52,4.03-6.2,5.22c-2.68,1.19-5.87,1.79-9.56,1.79h-12.96l1.51-1.29l-2.85,14.14
				H1148.48z M1154.12,229.58l-0.95-1.4h12.46c4.77,0,8.47-1.07,11.12-3.21c2.64-2.14,3.97-5.32,3.97-9.53
				c0-2.72-0.94-4.8-2.82-6.26c-1.88-1.45-4.57-2.18-8.07-2.18h-12.4l1.51-1.4L1154.12,229.58z M1175.69,243.55l-7.99-14.19h3.13
				l7.99,14.19H1175.69z"/>
			<path class="st1" d="M1206.81,243.55l7.26-36.54h-14.08l0.56-2.57h31.01l-0.5,2.57h-14.08l-7.32,36.54H1206.81z"/>
			<path class="st1" d="M1252.12,243.83c-1.9,0-3.75-0.23-5.56-0.7c-1.81-0.47-3.43-1.09-4.86-1.87c-1.43-0.78-2.56-1.66-3.38-2.63
				l1.51-2.18c0.82,0.93,1.89,1.77,3.21,2.52s2.79,1.32,4.41,1.73c1.62,0.41,3.25,0.62,4.89,0.62c2.42,0,4.57-0.34,6.45-1.01
				c1.88-0.67,3.34-1.65,4.39-2.93c1.04-1.28,1.56-2.86,1.56-4.72c0-1.38-0.38-2.49-1.15-3.35c-0.76-0.86-1.75-1.57-2.96-2.12
				c-1.21-0.56-2.55-1.03-4.02-1.42c-1.47-0.39-2.94-0.83-4.41-1.31c-1.47-0.48-2.81-1.07-4.02-1.76c-1.21-0.69-2.2-1.59-2.96-2.71
				c-0.76-1.12-1.15-2.53-1.15-4.25c0-2.46,0.66-4.54,1.98-6.26c1.32-1.71,3.12-3.03,5.39-3.94c2.27-0.91,4.86-1.37,7.77-1.37
				c2.23,0,4.39,0.29,6.48,0.87s3.86,1.42,5.31,2.54l-1.34,2.35c-1.38-1.04-2.98-1.84-4.81-2.4c-1.83-0.56-3.74-0.84-5.76-0.84
				c-2.38,0-4.5,0.34-6.34,1.03c-1.84,0.69-3.28,1.69-4.3,2.99c-1.02,1.3-1.54,2.89-1.54,4.75c0,1.38,0.37,2.51,1.12,3.38
				c0.74,0.88,1.72,1.6,2.93,2.18c1.21,0.58,2.56,1.07,4.05,1.48c1.49,0.41,2.96,0.85,4.41,1.31c1.45,0.47,2.79,1.04,4.02,1.73
				c1.23,0.69,2.23,1.57,2.99,2.65c0.76,1.08,1.15,2.46,1.15,4.14c0,2.5-0.68,4.6-2.04,6.31c-1.36,1.71-3.2,3.01-5.53,3.88
				S1255.07,243.83,1252.12,243.83z"/>
		</g>
		<g>
			<path class="st1" d="M1319.19,249.45c-3.54,0-6.82-0.64-9.84-1.91c-3.02-1.27-5.67-3.06-7.93-5.35s-4.03-4.94-5.28-7.97
				c-1.25-3.02-1.88-6.28-1.88-9.77c0-3.49,0.64-6.75,1.91-9.77c1.27-3.02,3.05-5.68,5.31-7.97c2.27-2.29,4.92-4.07,7.97-5.35
				s6.34-1.91,9.88-1.91s6.83,0.63,9.88,1.88c3.04,1.25,5.69,3.01,7.93,5.27c2.24,2.27,3.99,4.9,5.24,7.9
				c1.25,3,1.88,6.27,1.88,9.81c0,3.54-0.64,6.83-1.91,9.88c-1.27,3.04-3.06,5.71-5.35,8c-2.29,2.29-4.95,4.07-7.97,5.35
				C1326.02,248.82,1322.73,249.45,1319.19,249.45z M1319.12,245.56c3.02,0,5.81-0.54,8.36-1.63c2.55-1.08,4.78-2.58,6.69-4.5
				c1.91-1.91,3.39-4.17,4.43-6.76c1.04-2.6,1.56-5.38,1.56-8.36c0-2.97-0.52-5.74-1.56-8.28c-1.04-2.55-2.49-4.77-4.36-6.66
				c-1.87-1.89-4.06-3.36-6.59-4.43c-2.53-1.06-5.3-1.59-8.32-1.59c-3.02,0-5.82,0.53-8.39,1.59c-2.57,1.06-4.79,2.56-6.66,4.5
				c-1.87,1.94-3.33,4.18-4.39,6.73c-1.06,2.55-1.59,5.31-1.59,8.28c0,2.97,0.52,5.74,1.56,8.29c1.04,2.55,2.5,4.79,4.39,6.73
				c1.89,1.94,4.11,3.44,6.66,4.5C1313.46,245.03,1316.2,245.56,1319.12,245.56z M1308.78,238.41v-27.9h11.61
				c3.68,0,6.56,0.87,8.64,2.62c2.08,1.75,3.12,4.11,3.12,7.08c0,3.07-1.04,5.45-3.12,7.15c-2.08,1.7-4.96,2.55-8.64,2.55h-5.53v8.5
				H1308.78z M1314.8,225.16h5.24c1.98,0,3.52-0.44,4.6-1.31c1.08-0.87,1.63-2.09,1.63-3.65c0-1.56-0.54-2.76-1.63-3.61
				c-1.09-0.85-2.62-1.27-4.6-1.27h-5.24V225.16z M1326.7,238.41l-6.94-10.69h6.09l6.94,10.69H1326.7z"/>
		</g>
	</g>
	<g>
		<g>
			<g>
				<path class="st2" d="M564.41,1282.01c-20.72,0-41.08-3.78-55.85-10.36l-0.19-0.08c-23.42-10.73-40.87-22.07-53.35-34.67
					c-13.67-13.81-21.91-29.86-24.5-47.7c-7.15-49.33,22.19-117.36,114.01-296.74c32.91-63.79,102.07-196.3,147.7-280.52
					c34.61-63.87,67.36-124.31,66.24-150.54l-23.68-12.21l19.15-25.66c5.27-7.05,12.39-11.27,21.18-12.55
					c1.75-0.25,3.59-0.38,5.46-0.38c21.33,0,50.6,18.09,66.15,28.87c32.07,22.24,49.74,43.2,52.51,62.32
					c2.03,14-1.1,31.98-60.14,136.42c-11.54,20.54-23.42,41.59-34.92,61.95l-0.25,0.44c-77.42,137.17-157.48,279-202,385.63
					l-0.06,0.13c-1.18,2.77-2.44,5.69-3.76,8.76l-0.42,0.96c-8.59,19.91-21.94,50.86-29.27,77.83c7.19-7.26,15.88-16.36,26.32-27.76
					c28.29-30.89,61.79-70.37,85.38-100.63c10.24-13.58,21.04-16.43,28.31-16.43c4.71,0,9.41,1.21,13.6,3.51
					c11.06,6.07,19.11,20.4,12.15,38.72l-0.25,0.62c-14.93,36.56-39.81,84.72-63.37,122.69c-34.71,55.93-60.89,82.43-84.87,85.9
					C578.99,1281.52,571.83,1282.01,564.41,1282.01z"/>
			</g>
			<g>
				<path class="st2" d="M374.18,862.46c-36.16,0-74.74-13.69-108.63-38.56c-36.54-26.82-61.96-62.22-66.34-92.4
					c-6.52-44.98,5.98-91.51,37.14-138.27c28.69-43.05,71.93-84.28,128.51-122.54c116.54-78.81,276.7-136.13,450.96-161.4
					c68.94-9.99,141.59-15.06,215.94-15.06c34.31,0,68.9,1.11,102.79,3.3c104.11,6.71,199.43,23.21,275.7,47.69
					c15.08,4.39,24.54,19.5,21.6,34.67c-2.76,14.16-15.29,24.04-30.49,24.04c-1.81,0-3.67-0.14-5.53-0.41
					c-84.62-11.64-170.51-17.55-255.28-17.55c-84.75,0-167.62,5.78-246.28,17.19c-147.78,21.43-298.6,78.52-413.79,156.64
					c-103.93,70.49-163.44,149.16-155.3,205.3c0.67,4.59,2.67,6.43,7.93,7.32l0.79,0.14c0.14,0.03,0.69,0.12,1.76,0.12
					c14.57,0,54.52-14.61,119.16-55.78c60.52-38.55,124.14-88.17,170.17-132.74l0.39-0.37c8.04-7.49,16.57-11.28,25.34-11.28
					c6.76,0,13.34,2.4,18.54,6.76c4.95,4.15,19.67,19.87,1.52,47.89l-0.39,0.59c-38.35,55.96-84.21,109.12-129.14,149.68
					c-53.74,48.53-104.73,77.45-147.46,83.64C387.42,861.99,380.82,862.46,374.18,862.46L374.18,862.46
					C374.18,862.46,374.18,862.46,374.18,862.46z"/>
			</g>
		</g>
	</g>
	<path class="st1" d="M726.58,1028.92c-3.48-1.91-9.15-2.15-16.41,7.54c-23.9,30.66-57.85,70.68-86.51,101.97
		c-45.96,50.19-60.57,58.91-64.22,60.42c-0.49-0.86-1.12-2.47-1.45-4.8c-4.86-33.53,20.41-92.11,35.51-127.1
		c1.46-3.4,2.85-6.61,4.14-9.64c44.98-107.72,125.33-250.08,203.04-387.75c11.57-20.5,23.53-41.69,35.17-62.4
		c52.95-93.65,59.05-114.8,57.76-123.71c-2.64-18.23-31.73-40.17-44.11-48.75c-6.66-4.62-40.76-27.54-57.35-25.13
		c-5.04,0.73-7.12,3.52-8.01,4.71l-5.03,6.74l7.48,3.86c2.79,1.44,4.71,3.6,5.62,9.89c4.31,29.74-23.11,82.26-68.22,165.49
		c-45.53,84.03-114.62,216.39-147.48,280.1c-88.17,172.24-118.34,241.15-112.02,284.75c3.94,27.15,24.39,47.82,66.38,67.05
		c12.4,5.53,30.34,8.63,47.71,8.63c6.31,0,12.55-0.41,18.43-1.26c16.9-2.45,40.7-28.24,70.75-76.66
		c23.03-37.11,47.31-84.09,61.85-119.71l0.06-0.16C733.17,1033.75,728.68,1030.08,726.58,1028.92z"/>
	<path class="st1" d="M668.05,595.23l0.1-0.15c6.61-10.2,7.42-17.5,2.41-21.7c-2.61-2.19-8.34-4.6-17.4,3.84l-0.1,0.1
		c-46.95,45.45-111.75,96.01-173.34,135.24c-63.93,40.72-114.6,62.56-135.54,58.41l-0.21-0.04c-18.66-3.12-23.31-16.48-24.43-24.17
		c-9.39-64.76,51.87-148.76,163.87-224.72C601.01,442.27,754.88,384,905.55,362.15c112.13-16.26,291.15-29.4,507.26,0.35
		c8.12,1.19,12.66-2.98,13.57-7.64c1-5.17-2.39-10.25-7.76-11.71c-74.78-24.05-168.55-40.26-271.2-46.88
		c-106.2-6.85-214.98-2.84-314.57,11.6c-171.34,24.84-328.53,81.02-442.63,158.17c-54.42,36.8-95.82,76.19-123.07,117.07
		c-28.35,42.54-39.79,84.36-33.99,124.31c3.58,24.68,26.49,55.75,58.37,79.14c30.65,22.49,65.07,34.69,96.79,34.69
		c5.68,0,11.28-0.39,16.75-1.18c38.79-5.62,86.13-32.84,136.93-78.7C585.8,701.83,630.56,649.93,668.05,595.23z"/>
</g>
</svg>
