<svg width="100" height="100" viewBox="0 0 100 100" fill="none" xmlns="http://www.w3.org/2000/svg">
<g id="Logout">
<g id="Iconly/Bulk/Logout">
<g id="Logout_2">
<path id="Fill-1" opacity="0.4" d="M8.33333 26.8625C8.33333 16.65 16.7927 8.33337 27.1856 8.33337H47.8568C58.2285 8.33337 66.6667 16.625 66.6667 26.8209V73.1376C66.6667 83.3542 58.2073 91.6667 47.8102 91.6667H27.1474C16.7715 91.6667 8.33333 83.375 8.33333 73.1792V69.2625V26.8625Z" fill="#D6182A"/>
<path id="Fill-3" d="M90.7455 47.7284L78.888 35.6076C77.6625 34.3576 75.6903 34.3576 74.4689 35.6159C73.2515 36.8743 73.2555 38.9034 74.477 40.1534L80.9739 46.7909H74.7448H39.7852C38.0606 46.7909 36.6606 48.2284 36.6606 49.9993C36.6606 51.7743 38.0606 53.2076 39.7852 53.2076H80.9739L74.477 59.8451C73.2555 61.0951 73.2515 63.1243 74.4689 64.3826C75.0816 65.0118 75.8811 65.3284 76.6846 65.3284C77.4799 65.3284 78.2793 65.0118 78.888 64.3909L90.7455 52.2743C91.3339 51.6701 91.6667 50.8534 91.6667 49.9993C91.6667 49.1493 91.3339 48.3326 90.7455 47.7284Z" fill="#D6182A"/>
</g>
</g>
</g>
</svg>
