<svg width="85" height="100" viewBox="0 0 85 100" fill="none" xmlns="http://www.w3.org/2000/svg">
<path d="M32.3159 86.1396C34.8155 85.6108 50.0464 85.6108 52.546 86.1396C54.6828 86.6331 56.9935 87.7863 56.9935 90.3042C56.8692 92.7012 55.4629 94.8263 53.5199 96.1759C51.0005 98.1399 48.0438 99.3837 44.9529 99.8319C43.2434 100.053 41.5638 100.059 39.914 99.8319C36.8181 99.3837 33.8614 98.1399 31.3469 96.1709C29.3989 94.8263 27.9926 92.7012 27.8684 90.3042C27.8684 87.7863 30.1791 86.6331 32.3159 86.1396ZM42.7261 0C53.1269 0 63.7512 4.93509 70.0623 13.1233C74.157 18.3958 76.0354 23.6633 76.0354 31.8515V33.9816C76.0354 40.2613 77.6951 43.9626 81.3476 48.228C84.1155 51.3703 85 55.404 85 59.7801C85 64.1512 83.5639 68.3007 80.6866 71.6697C76.9199 75.7084 71.6077 78.2867 66.1862 78.7349C58.3297 79.4047 50.4683 79.9687 42.5025 79.9687C34.5317 79.9687 26.6752 79.6313 18.8188 78.7349C13.3923 78.2867 8.08009 75.7084 4.31833 71.6697C1.4411 68.3007 0 64.1512 0 59.7801C0 55.404 0.889506 51.3703 3.65244 48.228C7.41918 43.9626 8.9696 40.2613 8.9696 33.9816V31.8515C8.9696 23.4417 11.0666 17.9426 15.385 12.5593C21.8053 4.70848 32.0968 0 42.2789 0H42.7261Z" fill="black"/>
</svg>
