<svg width="16" height="17" viewBox="0 0 16 17" fill="none" xmlns="http://www.w3.org/2000/svg">
<path d="M15.1494 3.08414C15.1494 4.33458 14.1357 5.34827 12.8852 5.34827C11.6348 5.34827 10.6211 4.33458 10.6211 3.08414C10.6211 1.83369 11.6348 0.820007 12.8852 0.820007C14.1357 0.820007 15.1494 1.83369 15.1494 3.08414Z" stroke="white" stroke-width="1.2" stroke-linecap="round" stroke-linejoin="round"/>
<path d="M6.09283 8.3671C6.09283 9.61754 5.07915 10.6312 3.8287 10.6312C2.57826 10.6312 1.56458 9.61754 1.56458 8.3671C1.56458 7.11665 2.57826 6.10297 3.8287 6.10297C5.07915 6.10297 6.09283 7.11665 6.09283 8.3671Z" stroke="white" stroke-width="1.2" stroke-linecap="round" stroke-linejoin="round"/>
<path d="M15.1494 13.6501C15.1494 14.9005 14.1357 15.9142 12.8852 15.9142C11.6348 15.9142 10.6211 14.9005 10.6211 13.6501C10.6211 12.3996 11.6348 11.386 12.8852 11.386C14.1357 11.386 15.1494 12.3996 15.1494 13.6501Z" stroke="white" stroke-width="1.2" stroke-linecap="round" stroke-linejoin="round"/>
<path d="M5.78345 9.50671L10.9381 12.5105" stroke="white" stroke-width="1.2" stroke-linecap="round" stroke-linejoin="round"/>
<path d="M10.9306 4.22375L5.78345 7.2275" stroke="white" stroke-width="1.2" stroke-linecap="round" stroke-linejoin="round"/>
</svg>
