<svg width="15" height="15" viewBox="0 0 15 15" fill="none" xmlns="http://www.w3.org/2000/svg">
<path d="M11.378 9.15816C11.1928 9.3376 11.1077 9.59712 11.1499 9.85163L11.7855 13.369C11.8391 13.6671 11.7133 13.9688 11.4638 14.1411C11.2193 14.3199 10.894 14.3413 10.6273 14.1983L7.46095 12.5469C7.35085 12.4882 7.2286 12.4568 7.10349 12.4532H6.90975C6.84254 12.4632 6.77677 12.4847 6.71672 12.5175L3.54964 14.1769C3.39308 14.2555 3.21578 14.2834 3.04205 14.2555C2.61882 14.1754 2.33643 13.7722 2.40578 13.3469L3.04205 9.82947C3.08423 9.57281 2.99916 9.31187 2.81399 9.12956L0.232433 6.62736C0.0165284 6.41789 -0.0585378 6.10332 0.0401206 5.8195C0.135919 5.5364 0.380421 5.32979 0.675681 5.28332L4.22881 4.76786C4.49905 4.73998 4.7364 4.57555 4.85794 4.33248L6.4236 1.12251C6.46078 1.05101 6.50868 0.985243 6.56659 0.929479L6.63093 0.879435C6.66453 0.842259 6.70314 0.811518 6.74603 0.786496L6.82396 0.757899L6.94549 0.707855H7.24647C7.51528 0.735737 7.75192 0.896593 7.8756 1.1368L9.462 4.33248C9.57638 4.56626 9.79872 4.72854 10.0554 4.76786L13.6085 5.28332C13.9088 5.32621 14.1597 5.53354 14.2591 5.8195C14.3527 6.10618 14.2719 6.42075 14.0518 6.62736L11.378 9.15816Z" fill="white"/>
</svg>
