<svg width="17" height="18" viewBox="0 0 17 18" fill="none" xmlns="http://www.w3.org/2000/svg">
<path d="M15.1579 14.0025C15.4441 13.7621 15.7952 13.3881 15.7952 12.8043C15.7952 12.2815 15.5777 11.9342 15.3793 11.6938C15.3564 11.648 15.3373 11.606 15.3182 11.5641L15.3106 11.5221C15.2839 11.3885 15.3106 11.2512 15.3869 11.1405C15.5166 10.9497 15.6082 10.6711 15.6082 10.1598C15.6082 9.71712 15.425 9.45763 15.2381 9.27446C15.0702 9.11037 15.0053 8.79745 15.0816 8.57613C15.2648 8.0457 15.0892 7.49237 14.7687 7.13367C14.368 6.68338 13.994 6.62995 12.9981 6.68719C12.3112 6.72917 10.8802 6.9505 9.9376 7.09932C9.55218 7.16038 9.21637 7.2138 9.11334 7.22144C8.6287 7.27104 8.5333 7.22144 8.48751 7.03445C8.46843 6.95431 8.56002 6.77114 8.6745 6.53837C8.82714 6.22927 9.03702 5.80569 9.22782 5.17223C9.61324 3.90531 9.57126 2.53154 9.12479 1.73017C8.91491 1.35239 8.56002 1.00131 8.12117 1.00131C7.68233 1.00131 7.23204 1.0929 7.0565 1.30278C6.92676 1.45542 6.96873 1.74544 6.81991 2.32547C6.70161 2.79866 6.55278 3.50463 6.36198 3.92821C6.07578 4.56167 4.84702 5.64923 4.18685 6.23308C4.03039 6.37046 3.89683 6.48876 3.80143 6.58034C3.46944 6.88944 3.12981 7.38552 2.82834 7.82818C2.62228 8.12583 2.43148 8.40822 2.30555 8.53415C2.03461 8.80509 1.67209 8.9501 1.45457 8.9501C1.28667 8.9501 1.14929 9.08747 1.14929 9.25538V15.3419C1.14929 15.5175 1.29048 15.6587 1.46602 15.6587C2.82071 15.6587 3.39312 15.88 3.99986 16.109C4.46542 16.2883 4.95005 16.4715 5.7705 16.5707C7.00689 16.7233 8.60199 16.8798 10.0673 16.8798C10.8458 16.8798 11.5899 16.8035 12.2272 16.731C13.4102 16.5936 14.6771 16.3188 15.0969 15.319C15.2533 14.9489 15.1808 14.6474 15.0778 14.4146C15.0625 14.3841 15.0511 14.3498 15.0473 14.3154C15.0244 14.1895 15.0702 14.075 15.1579 14.0025Z" stroke="white"/>
</svg>
