<svg width="17" height="18" viewBox="0 0 17 18" fill="none" xmlns="http://www.w3.org/2000/svg">
<path d="M1.98958 4.04953C1.70337 4.28994 1.35229 4.66391 1.35229 5.24776C1.35229 5.77056 1.56981 6.11781 1.76825 6.35822C1.79114 6.40402 1.81022 6.44599 1.8293 6.48797L1.83693 6.52995C1.86365 6.66351 1.83693 6.80088 1.76061 6.91155C1.63087 7.10235 1.53928 7.38092 1.53928 7.89227C1.53928 8.33493 1.72245 8.59442 1.90944 8.77759C2.07735 8.94168 2.14222 9.25459 2.0659 9.47592C1.88273 10.0063 2.05827 10.5597 2.37881 10.9184C2.7795 11.3687 3.15347 11.4221 4.14946 11.3649C4.83635 11.3229 6.26736 11.1015 7.20993 10.9527C7.59534 10.8917 7.93116 10.8382 8.03419 10.8306C8.51883 10.781 8.61423 10.8306 8.66002 11.0176C8.6791 11.0977 8.58751 11.2809 8.47303 11.5137C8.32039 11.8228 8.11051 12.2464 7.91971 12.8798C7.53429 14.1467 7.57626 15.5205 8.02274 16.3219C8.23262 16.6997 8.58751 17.0507 9.02636 17.0507C9.4652 17.0507 9.9155 16.9592 10.091 16.7493C10.2208 16.5966 10.1788 16.3066 10.3276 15.7266C10.4459 15.2534 10.5948 14.5474 10.7856 14.1238C11.0718 13.4904 12.3005 12.4028 12.9607 11.819C13.1172 11.6816 13.2507 11.5633 13.3461 11.4717C13.6781 11.1626 14.0177 10.6665 14.3192 10.2239C14.5253 9.92621 14.7161 9.64382 14.842 9.51789C15.1129 9.24696 15.4755 9.10195 15.693 9.10195C15.8609 9.10195 15.9983 8.96457 15.9983 8.79667V2.7101C15.9983 2.53456 15.8571 2.39337 15.6815 2.39337C14.3268 2.39337 13.7544 2.17204 13.1477 1.94308C12.6821 1.76372 12.1975 1.58055 11.377 1.48134C10.1406 1.3287 8.54554 1.17224 7.08018 1.17224C6.30171 1.17224 5.55758 1.24856 4.9203 1.32107C3.73733 1.45844 2.4704 1.7332 2.05063 2.733C1.89418 3.10315 1.96668 3.40462 2.06971 3.6374C2.08498 3.66792 2.09643 3.70227 2.10024 3.73661C2.12314 3.86254 2.07735 3.97702 1.98958 4.04953Z" stroke="white"/>
</svg>
