<svg width="41" height="41" viewBox="0 0 41 41" fill="none" xmlns="http://www.w3.org/2000/svg">
<path d="M20.7079 0C9.60734 0 0.576218 9.03111 0.576218 20.1317C0.576218 31.2314 9.60734 40.2633 20.7079 40.2633C31.8077 40.2633 40.8396 31.2314 40.8396 20.1317C40.8396 9.03111 31.8093 0 20.7079 0ZM25.7145 20.8404H22.4392C22.4392 26.0732 22.4392 32.5143 22.4392 32.5143H17.5859C17.5859 32.5143 17.5859 26.1356 17.5859 20.8404H15.2789V16.7145H17.5859V14.0458C17.5859 12.1345 18.4941 9.14788 22.4838 9.14788L26.0802 9.16166V13.1667C26.0802 13.1667 23.8948 13.1667 23.4699 13.1667C23.0449 13.1667 22.4408 13.3792 22.4408 14.2907V16.7153H26.1386L25.7145 20.8404Z" fill="#FF002E"/>
</svg>
