<svg width="128" height="128" viewBox="0 0 128 128" fill="none" xmlns="http://www.w3.org/2000/svg">
<path d="M64 0C28.6571 0 0 28.6571 0 64C0 99.3429 28.6571 128 64 128C99.3429 128 128 99.3429 128 64C128 28.6571 99.3429 0 64 0ZM87.8571 90.5143C82.0571 95.8571 74.1429 99 64.7 99C51.0286 99 39.2 91.1571 33.4429 79.7286C31.0714 75 29.7143 69.6571 29.7143 64C29.7143 58.3429 31.0714 53 33.4429 48.2714C39.2 36.8286 51.0286 28.9857 64.7 28.9857C74.1286 28.9857 82.0429 32.4571 88.1143 38.1L78.0857 48.1429C74.4571 44.6714 69.8429 42.9143 64.7143 42.9143C55.6 42.9143 47.8857 49.0714 45.1286 57.3429C44.4286 59.4429 44.0286 61.6857 44.0286 64C44.0286 66.3143 44.4286 68.5571 45.1286 70.6571C47.8857 78.9286 55.6 85.0857 64.7 85.0857C69.4143 85.0857 73.4143 83.8429 76.5429 81.7429C80.2571 79.2571 82.7143 75.5571 83.5286 71.1714H64.7V57.6286H97.6571C98.0714 59.9286 98.2857 62.3143 98.2857 64.7857C98.2857 75.4571 94.4714 84.4143 87.8571 90.5143Z" fill="#FF002E"/>
</svg>
