<svg width="103" height="108" viewBox="0 0 103 108" fill="none" xmlns="http://www.w3.org/2000/svg">
<path d="M37.2861 97.857V82.5233C37.286 78.6232 40.4656 75.4541 44.4051 75.428H58.8354C62.7937 75.428 66.0025 78.6047 66.0025 82.5233V97.9046C66.0016 101.216 68.6713 103.922 72.0152 104H81.6354C91.2256 104 99 96.3034 99 86.8092V43.1892C98.9488 39.4541 97.1774 35.9467 94.1899 33.6652L61.2886 7.42651C55.5247 2.85783 47.331 2.85783 41.5671 7.42651L8.81013 33.7128C5.81129 35.9851 4.03693 39.4983 4 43.2368V86.8092C4 96.3034 11.7744 104 21.3646 104H30.9848C34.4118 104 37.1899 101.25 37.1899 97.857" stroke="black" stroke-width="8" stroke-linecap="round" stroke-linejoin="round"/>
</svg>
