<svg width="95" height="100" viewBox="0 0 95 100" fill="none" xmlns="http://www.w3.org/2000/svg">
<path d="M33.1739 93.8667V78.578C33.1739 74.6753 36.3608 71.5115 40.2922 71.5115H54.663C56.5509 71.5115 58.3615 72.256 59.6964 73.5812C61.0313 74.9065 61.7813 76.7039 61.7813 78.578V93.8667C61.7694 95.4892 62.4103 97.0493 63.5618 98.2008C64.7133 99.3523 66.2802 99.9999 67.9147 99.9999H77.7191C82.2981 100.012 86.6937 98.2142 89.9358 95.004C93.1779 91.7938 94.9999 87.4349 94.9999 82.8891V39.3343C94.9999 35.6623 93.3603 32.1792 90.523 29.8233L57.1701 3.37934C51.3683 -1.25719 43.0555 -1.10749 37.4269 3.73489L4.83506 29.8233C1.8637 32.1097 0.0877614 35.6032 0 39.3343V82.8446C0 92.3192 7.7369 99.9999 17.2809 99.9999H26.8614C30.2561 99.9999 33.015 97.281 33.0396 93.9111L33.1739 93.8667Z" fill="#FF002E"/>
</svg>
