<svg width="111" height="108" viewBox="0 0 111 108" fill="none" xmlns="http://www.w3.org/2000/svg">
<path d="M4 4L15.5289 5.99539L20.8666 69.5873C21.2934 74.7809 25.6333 78.7661 30.8435 78.7495H91.3093C96.2812 78.7606 100.499 75.1023 101.203 70.1804L106.463 33.8311C107.051 29.7682 104.229 25.9992 100.172 25.4116C99.8175 25.3617 17.3802 25.334 17.3802 25.334" stroke="black" stroke-width="8" stroke-linecap="round" stroke-linejoin="round"/>
<path d="M67.0487 45.8196H82.4188" stroke="black" stroke-width="8" stroke-linecap="round" stroke-linejoin="round"/>
<path fill-rule="evenodd" clip-rule="evenodd" d="M28.412 97.9641C30.0803 97.9641 31.4272 99.3165 31.4272 100.979C31.4272 102.648 30.0803 104 28.412 104C26.7436 104 25.3967 102.648 25.3967 100.979C25.3967 99.3165 26.7436 97.9641 28.412 97.9641Z" fill="black" stroke="black" stroke-width="8" stroke-linecap="round" stroke-linejoin="round"/>
<path fill-rule="evenodd" clip-rule="evenodd" d="M90.9357 97.9641C92.6041 97.9641 93.9565 99.3165 93.9565 100.979C93.9565 102.648 92.6041 104 90.9357 104C89.2674 104 87.9205 102.648 87.9205 100.979C87.9205 99.3165 89.2674 97.9641 90.9357 97.9641Z" fill="black" stroke="black" stroke-width="8" stroke-linecap="round" stroke-linejoin="round"/>
</svg>
