<svg width="100" height="100" viewBox="0 0 100 100" fill="none" xmlns="http://www.w3.org/2000/svg">
<path d="M27.1316 84.5393C31.2783 84.5393 34.6757 88.009 34.6757 92.2952C34.6757 96.5303 31.2783 100 27.1316 100C22.9348 100 19.5375 96.5303 19.5375 92.2952C19.5375 88.009 22.9348 84.5393 27.1316 84.5393ZM83.3378 84.5393C87.4845 84.5393 90.8819 88.009 90.8819 92.2952C90.8819 96.5303 87.4845 100 83.3378 100C79.141 100 75.7437 96.5303 75.7437 92.2952C75.7437 88.009 79.141 84.5393 83.3378 84.5393ZM4.40028 0.0436915L16.316 1.87551C18.0147 2.18676 19.2637 3.61037 19.4136 5.34524L20.3628 16.7749C20.5127 18.4129 21.8117 19.6375 23.4105 19.6375H90.8829C93.9305 19.6375 95.9289 20.709 97.9274 23.0562C99.9258 25.4033 100.276 28.771 99.8259 31.8274L95.0796 65.3001C94.1803 71.7344 88.7845 76.4747 82.4395 76.4747H27.9319C21.2871 76.4747 15.7914 71.2752 15.2418 64.5399L10.6454 8.91702L3.10129 7.59036C1.10285 7.23318 -0.296059 5.24318 0.0536689 3.20217C0.403396 1.11523 2.35188 -0.267564 4.40028 0.0436915ZM74.4457 38.5118H60.6065C58.5081 38.5118 56.8594 40.1956 56.8594 42.3387C56.8594 44.4307 58.5081 46.1656 60.6065 46.1656H74.4457C76.5441 46.1656 78.1928 44.4307 78.1928 42.3387C78.1928 40.1956 76.5441 38.5118 74.4457 38.5118Z" fill="#FF002E"/>
</svg>
