<svg width="20" height="20" viewBox="0 0 20 20" fill="none" xmlns="http://www.w3.org/2000/svg">
<path opacity="0.4" d="M20 9.99982C20 15.5238 15.523 19.9998 10 19.9998C4.477 19.9998 0 15.5238 0 9.99982C0 4.47782 4.477 -0.000183105 10 -0.000183105C15.523 -0.000183105 20 4.47782 20 9.99982Z" fill="#FF002E"/>
<path d="M9.99512 12.9285C10.4881 12.9285 10.8801 13.3215 10.8801 13.8035C10.8801 14.2855 10.4881 14.6785 10.0051 14.6785C9.52012 14.6785 9.12512 14.2855 9.12512 13.8035C9.12512 13.3215 9.51612 12.9285 9.99512 12.9285ZM9.99512 5.33569C10.4771 5.33569 10.8701 5.72869 10.8701 6.21069V10.6307C10.8701 11.1127 10.4771 11.5057 9.99512 11.5057C9.51312 11.5057 9.12012 11.1127 9.12012 10.6307V6.21069C9.12012 5.72869 9.51312 5.33569 9.99512 5.33569Z" fill="#FF002E"/>
</svg>
