<svg width="20" height="20" viewBox="0 0 20 20" fill="none" xmlns="http://www.w3.org/2000/svg">
<path opacity="0.4" d="M20 10.2894C20 15.6535 15.6526 20 10.2894 20C4.92629 20 0.578857 15.6535 0.578857 10.2894C0.578857 4.92723 4.92629 0.578827 10.2894 0.578827C15.6526 0.578827 20 4.92723 20 10.2894Z" fill="#FF002E"/>
<path d="M13.7597 13.9935C13.6325 13.9935 13.5043 13.9605 13.3868 13.8916L9.57441 11.6173C9.35495 11.4853 9.21997 11.2474 9.21997 10.991V6.09008C9.21997 5.68806 9.54625 5.36179 9.94826 5.36179C10.3503 5.36179 10.6766 5.68806 10.6766 6.09008V10.5773L14.1335 12.6389C14.4783 12.8457 14.5919 13.2924 14.386 13.6381C14.2491 13.8663 14.0073 13.9935 13.7597 13.9935Z" fill="#FF002E"/>
</svg>
