<svg width="20" height="18" viewBox="0 0 20 18" fill="none" xmlns="http://www.w3.org/2000/svg">
<path opacity="0.4" d="M20 12.9402C20 15.7302 17.76 17.9902 14.97 18.0002H14.96H5.05C2.27 18.0002 0 15.7502 0 12.9602V12.9502C0 12.9502 0.006 8.52418 0.014 6.29818C0.015 5.88018 0.495 5.64618 0.822 5.90618C3.198 7.79118 7.447 11.2282 7.5 11.2732C8.21 11.8422 9.11 12.1632 10.03 12.1632C10.95 12.1632 11.85 11.8422 12.56 11.2622C12.613 11.2272 16.767 7.89318 19.179 5.97718C19.507 5.71618 19.989 5.95018 19.99 6.36718C20 8.57618 20 12.9402 20 12.9402Z" fill="#FF002E"/>
<path d="M19.4761 2.67357C18.6101 1.04157 16.9061 -0.000427246 15.0301 -0.000427246H5.05013C3.17413 -0.000427246 1.47013 1.04157 0.604128 2.67357C0.410128 3.03857 0.502128 3.49357 0.825128 3.75157L8.25013 9.69057C8.77013 10.1106 9.40013 10.3196 10.0301 10.3196C10.0341 10.3196 10.0371 10.3196 10.0401 10.3196C10.0431 10.3196 10.0471 10.3196 10.0501 10.3196C10.6801 10.3196 11.3101 10.1106 11.8301 9.69057L19.2551 3.75157C19.5781 3.49357 19.6701 3.03857 19.4761 2.67357Z" fill="#FF002E"/>
</svg>
