<svg width="19" height="18" viewBox="0 0 19 18" fill="none" xmlns="http://www.w3.org/2000/svg">
<path d="M18.1047 0.523919C17.6517 0.0609702 16.9813 -0.110257 16.3562 0.0709359L1.77922 4.28277C1.11968 4.46578 0.652203 4.98852 0.526274 5.65169C0.397627 6.32754 0.846986 7.18639 1.43405 7.54515L5.99197 10.3283C6.45944 10.6146 7.06282 10.543 7.44966 10.1552L12.6689 4.93597C12.9317 4.66328 13.3665 4.66328 13.6293 4.93597C13.892 5.1978 13.892 5.62451 13.6293 5.8963L8.40093 11.1156C8.01318 11.5033 7.9407 12.1049 8.22608 12.5733L11.011 17.1484C11.3372 17.6911 11.8989 18 12.5149 18C12.5874 18 12.6689 18 12.7414 17.99C13.4481 17.9003 14.0098 17.4193 14.2181 16.7398L18.5396 2.27243C18.7298 1.65638 18.5577 0.985961 18.1047 0.523919Z" fill="#FF002E"/>
<path opacity="0.4" d="M7.25496 15.5302C7.5195 15.7957 7.5195 16.226 7.25496 16.4915L6.01741 17.7281C5.88514 17.8613 5.7112 17.9274 5.53725 17.9274C5.3633 17.9274 5.18936 17.8613 5.05709 17.7281C4.79164 17.4627 4.79164 17.0332 5.05709 16.7678L6.29373 15.5302C6.55918 15.2657 6.98951 15.2657 7.25496 15.5302ZM6.54496 12.0984C6.8095 12.3639 6.8095 12.7942 6.54496 13.0597L5.30741 14.2963C5.17514 14.4295 5.00119 14.4956 4.82724 14.4956C4.6533 14.4956 4.47935 14.4295 4.34708 14.2963C4.08164 14.0309 4.08164 13.6014 4.34708 13.336L5.58373 12.0984C5.84917 11.8339 6.27951 11.8339 6.54496 12.0984ZM3.13744 11.0182C3.40198 11.2836 3.40198 11.714 3.13744 11.9794L1.89989 13.216C1.76762 13.3492 1.59367 13.4154 1.41973 13.4154C1.24578 13.4154 1.07184 13.3492 0.939564 13.216C0.674117 12.9506 0.674117 12.5212 0.939564 12.2557L2.17621 11.0182C2.44166 10.7536 2.87199 10.7536 3.13744 11.0182Z" fill="#FF002E"/>
</svg>
