<svg width="17" height="20" viewBox="0 0 17 20" fill="none" xmlns="http://www.w3.org/2000/svg">
<path opacity="0.4" d="M8.58653 20C8.4627 20 8.33887 19.9716 8.22713 19.9137L4.62603 18.0496C3.60419 17.5201 2.80484 16.9259 2.18067 16.2336C0.814525 14.7195 0.0544394 12.776 0.0423585 10.7599L3.75181e-05 4.12426C-0.00495807 3.35842 0.48935 2.67103 1.22829 2.41215L7.84054 0.106788C8.23317 -0.0334361 8.6711 -0.0353973 9.07077 0.099924L15.7082 2.32684C16.4512 2.57493 16.9535 3.25742 16.9575 4.02228L16.9998 10.6628C17.0129 12.676 16.279 14.6274 14.934 16.1581C14.3169 16.8602 13.5246 17.4632 12.5128 18.0025L8.94392 19.9088C8.83318 19.9686 8.71036 19.999 8.58653 20Z" fill="#FF002E"/>
<path d="M7.81912 12.3209C7.62582 12.3219 7.43253 12.2523 7.28353 12.1091L5.36671 10.2656C5.07073 9.97927 5.06771 9.51447 5.36067 9.22617C5.65363 8.9369 6.13183 8.93396 6.42882 9.21931L7.80804 10.5451L11.1756 7.22479C11.4695 6.93552 11.9477 6.93258 12.2437 7.21793C12.5407 7.50426 12.5437 7.97004 12.2508 8.25735L8.35168 12.1022C8.2047 12.2474 8.01241 12.3199 7.81912 12.3209Z" fill="#FF002E"/>
</svg>
